<mxfile host="app.diagrams.net" agent="Mozilla/5.0 (Windows NT 10.0; Win64; x64) AppleWebKit/537.36 (KHTML, like Gecko) Chrome/129.0.0.0 Safari/537.36" version="24.7.17">
  <diagram name="Page-1" id="YTAEqVUtPupD6aSCeXq0">
    <mxGraphModel dx="989" dy="532" grid="1" gridSize="10" guides="1" tooltips="1" connect="1" arrows="1" fold="1" page="1" pageScale="1" pageWidth="827" pageHeight="1169" math="0" shadow="0">
      <root>
        <mxCell id="0" />
        <mxCell id="1" parent="0" />
        <mxCell id="S9XBOgk0gOloz11ID8vb-14" style="edgeStyle=orthogonalEdgeStyle;rounded=0;orthogonalLoop=1;jettySize=auto;html=1;entryX=0;entryY=0.5;entryDx=0;entryDy=0;" edge="1" parent="1" source="S9XBOgk0gOloz11ID8vb-1" target="S9XBOgk0gOloz11ID8vb-2">
          <mxGeometry relative="1" as="geometry" />
        </mxCell>
        <mxCell id="S9XBOgk0gOloz11ID8vb-1" value="Chest X-Ray Input" style="rounded=1;whiteSpace=wrap;html=1;" vertex="1" parent="1">
          <mxGeometry x="180" y="130" width="120" height="60" as="geometry" />
        </mxCell>
        <mxCell id="S9XBOgk0gOloz11ID8vb-15" style="edgeStyle=orthogonalEdgeStyle;rounded=0;orthogonalLoop=1;jettySize=auto;html=1;entryX=0.5;entryY=0;entryDx=0;entryDy=0;" edge="1" parent="1" source="S9XBOgk0gOloz11ID8vb-2" target="S9XBOgk0gOloz11ID8vb-3">
          <mxGeometry relative="1" as="geometry" />
        </mxCell>
        <mxCell id="S9XBOgk0gOloz11ID8vb-2" value="Image Processing" style="rounded=1;whiteSpace=wrap;html=1;" vertex="1" parent="1">
          <mxGeometry x="340" y="130" width="120" height="60" as="geometry" />
        </mxCell>
        <mxCell id="S9XBOgk0gOloz11ID8vb-16" style="edgeStyle=orthogonalEdgeStyle;rounded=0;orthogonalLoop=1;jettySize=auto;html=1;" edge="1" parent="1" source="S9XBOgk0gOloz11ID8vb-3" target="S9XBOgk0gOloz11ID8vb-10">
          <mxGeometry relative="1" as="geometry" />
        </mxCell>
        <mxCell id="S9XBOgk0gOloz11ID8vb-17" style="edgeStyle=orthogonalEdgeStyle;rounded=0;orthogonalLoop=1;jettySize=auto;html=1;" edge="1" parent="1" source="S9XBOgk0gOloz11ID8vb-3" target="S9XBOgk0gOloz11ID8vb-6">
          <mxGeometry relative="1" as="geometry" />
        </mxCell>
        <mxCell id="S9XBOgk0gOloz11ID8vb-3" value="Detection System" style="rounded=1;whiteSpace=wrap;html=1;" vertex="1" parent="1">
          <mxGeometry x="340" y="240" width="120" height="60" as="geometry" />
        </mxCell>
        <mxCell id="S9XBOgk0gOloz11ID8vb-18" style="edgeStyle=orthogonalEdgeStyle;rounded=0;orthogonalLoop=1;jettySize=auto;html=1;" edge="1" parent="1" source="S9XBOgk0gOloz11ID8vb-6" target="S9XBOgk0gOloz11ID8vb-11">
          <mxGeometry relative="1" as="geometry" />
        </mxCell>
        <mxCell id="S9XBOgk0gOloz11ID8vb-19" style="edgeStyle=orthogonalEdgeStyle;rounded=0;orthogonalLoop=1;jettySize=auto;html=1;" edge="1" parent="1" source="S9XBOgk0gOloz11ID8vb-6" target="S9XBOgk0gOloz11ID8vb-12">
          <mxGeometry relative="1" as="geometry">
            <Array as="points">
              <mxPoint x="400" y="430" />
              <mxPoint x="400" y="430" />
            </Array>
          </mxGeometry>
        </mxCell>
        <mxCell id="S9XBOgk0gOloz11ID8vb-20" style="edgeStyle=orthogonalEdgeStyle;rounded=0;orthogonalLoop=1;jettySize=auto;html=1;" edge="1" parent="1" source="S9XBOgk0gOloz11ID8vb-6" target="S9XBOgk0gOloz11ID8vb-13">
          <mxGeometry relative="1" as="geometry" />
        </mxCell>
        <mxCell id="S9XBOgk0gOloz11ID8vb-6" value="Classification of Lung Disease using CNN" style="rounded=1;whiteSpace=wrap;html=1;" vertex="1" parent="1">
          <mxGeometry x="245" y="330" width="310" height="60" as="geometry" />
        </mxCell>
        <mxCell id="S9XBOgk0gOloz11ID8vb-10" value="Normal" style="rounded=0;whiteSpace=wrap;html=1;" vertex="1" parent="1">
          <mxGeometry x="200" y="245" width="100" height="50" as="geometry" />
        </mxCell>
        <mxCell id="S9XBOgk0gOloz11ID8vb-11" value="Pneumonia" style="rounded=0;whiteSpace=wrap;html=1;" vertex="1" parent="1">
          <mxGeometry x="220" y="440" width="100" height="50" as="geometry" />
        </mxCell>
        <mxCell id="S9XBOgk0gOloz11ID8vb-12" value="Covid" style="rounded=0;whiteSpace=wrap;html=1;" vertex="1" parent="1">
          <mxGeometry x="340" y="440" width="100" height="50" as="geometry" />
        </mxCell>
        <mxCell id="S9XBOgk0gOloz11ID8vb-13" value="Tuberculosis" style="rounded=0;whiteSpace=wrap;html=1;" vertex="1" parent="1">
          <mxGeometry x="460" y="440" width="100" height="50" as="geometry" />
        </mxCell>
        <mxCell id="S9XBOgk0gOloz11ID8vb-21" value="&lt;font style=&quot;font-size: 10px;&quot;&gt;Normal Scan&lt;/font&gt;" style="text;html=1;align=center;verticalAlign=middle;resizable=0;points=[];autosize=1;strokeColor=none;fillColor=none;" vertex="1" parent="1">
          <mxGeometry x="280" y="215" width="80" height="30" as="geometry" />
        </mxCell>
        <mxCell id="S9XBOgk0gOloz11ID8vb-22" value="&lt;font style=&quot;font-size: 10px;&quot;&gt;Unhealthy Scan&lt;/font&gt;" style="text;html=1;align=center;verticalAlign=middle;resizable=0;points=[];autosize=1;strokeColor=none;fillColor=none;" vertex="1" parent="1">
          <mxGeometry x="400" y="300" width="90" height="30" as="geometry" />
        </mxCell>
      </root>
    </mxGraphModel>
  </diagram>
</mxfile>
